<?xml version="1.0" encoding="utf-8"?>
<!-- Generator: Adobe Illustrator 19.0.1, SVG Export Plug-In . SVG Version: 6.00 Build 0)  -->
<svg version="1.1" id="Layer_1" xmlns="http://www.w3.org/2000/svg" xmlns:xlink="http://www.w3.org/1999/xlink" x="0px" y="0px"
	 viewBox="0 0 131 75" style="enable-background:new 0 0 131 75;" xml:space="preserve">
<style type="text/css">
	.st0{fill:#FFFFFF;}
	.st1{fill:#BCD2E4;}
</style>
<path class="st0" d="M3.5,51.7c0.4-0.5,0.8-0.9,1.2-1.2c0.5-0.3,1-0.4,1.5-0.4c0.6,0,1.1,0.1,1.6,0.4c0.4,0.3,0.7,0.6,0.8,1
	c0.1,0.4,0.2,1,0.2,1.9v2.2c0,0.9,0,1.5,0.1,1.7c0,0.2,0.1,0.3,0.3,0.4c0.2,0.1,0.5,0.1,0.9,0.1v0.4H6.2v-0.4h0.2
	c0.5,0,0.7-0.1,0.9-0.2c0.1-0.1,0.2-0.3,0.2-0.5c0-0.2,0-0.7,0-1.6v-2.4c0-0.7,0-1.1-0.1-1.5c-0.1-0.3-0.2-0.6-0.5-0.8
	c-0.3-0.2-0.6-0.3-1-0.3c-0.5,0-0.9,0.1-1.3,0.4c-0.4,0.3-0.7,0.7-1,1.3v3.2c0,0.9,0,1.4,0,1.6c0,0.2,0.1,0.4,0.3,0.5
	c0.2,0.1,0.5,0.2,0.9,0.2v0.4H0.9v-0.4h0.2c0.4,0,0.7-0.1,0.9-0.2c0.1-0.1,0.2-0.3,0.2-0.5c0-0.2,0-0.7,0-1.6v-7.9
	c0-0.8-0.1-1.3-0.2-1.5c-0.1-0.2-0.5-0.3-1-0.3v-0.4c1,0,1.8-0.1,2.4-0.4h0.2V51.7L3.5,51.7z"/>
<path class="st0" d="M18.1,53.1h-5.3c0,0.4,0,0.7,0,0.9c0,1.4,0.2,2.4,0.6,3.1c0.4,0.7,1,1,1.9,1c1.1,0,1.9-0.5,2.4-1.6h0.4
	c-0.2,0.7-0.6,1.2-1.2,1.5c-0.6,0.4-1.2,0.6-1.9,0.6c-0.6,0-1.2-0.2-1.8-0.5c-0.6-0.3-1-0.8-1.4-1.4c-0.4-0.6-0.5-1.4-0.5-2.3
	c0-1.3,0.4-2.3,1.1-3.1c0.7-0.8,1.6-1.2,2.6-1.2c1,0,1.8,0.3,2.3,1C17.8,51.7,18.1,52.3,18.1,53.1L18.1,53.1z M16.5,52.7
	c0-0.1,0-0.3,0-0.4c0-0.6-0.2-1-0.5-1.3c-0.3-0.3-0.7-0.5-1.2-0.5c-1.1,0-1.8,0.7-2,2.2H16.5L16.5,52.7z"/>
<path class="st0" d="M27.2,56.9h0.3c-0.1,1.1-0.6,1.7-1.5,1.7c-0.4,0-0.7-0.1-1-0.3c-0.2-0.2-0.4-0.6-0.5-1c-0.6,0.5-1.2,0.8-1.7,1
	c-0.5,0.2-1,0.3-1.4,0.3c-0.5,0-1-0.2-1.3-0.5c-0.4-0.3-0.6-0.7-0.6-1.2c0-0.7,0.3-1.2,0.9-1.7c0.6-0.5,1.5-1,2.6-1.5l1.4-0.6v-0.4
	c0-0.5,0-0.9-0.1-1.2c-0.1-0.2-0.2-0.5-0.5-0.7c-0.3-0.2-0.7-0.3-1.1-0.3c-0.9,0-1.4,0.3-1.5,1c-0.1,0.7-0.4,1-0.8,1
	c-0.4,0-0.6-0.2-0.6-0.6c0-0.4,0.2-0.8,0.7-1.2c0.5-0.4,1.3-0.6,2.3-0.6c0.8,0,1.4,0.1,1.8,0.4c0.4,0.3,0.7,0.6,0.9,0.9
	c0.1,0.3,0.2,0.8,0.2,1.5V56c0,0.7,0,1.2,0.1,1.4c0.1,0.2,0.2,0.3,0.5,0.3C26.8,57.8,27.1,57.5,27.2,56.9L27.2,56.9z M24.5,53.5
	l-1,0.4c-1.6,0.7-2.4,1.5-2.4,2.6c0,0.4,0.1,0.7,0.3,1s0.5,0.4,0.8,0.4c0.3,0,0.6-0.1,1-0.3c0.4-0.2,0.8-0.5,1.3-0.9V53.5L24.5,53.5
	z"/>
<path class="st0" d="M30.8,52.1c0.2-0.6,0.6-1.1,1-1.4c0.5-0.4,0.9-0.6,1.4-0.6c0.4,0,0.7,0.1,1,0.4c0.2,0.3,0.4,0.5,0.4,0.8
	c0,0.2-0.1,0.3-0.2,0.5c-0.1,0.1-0.3,0.2-0.4,0.2c-0.3,0-0.5-0.2-0.7-0.7c-0.1-0.3-0.3-0.5-0.5-0.5c-0.3,0-0.6,0.2-1,0.6
	c-0.4,0.4-0.6,0.8-0.7,1.2c-0.1,0.4-0.2,1-0.2,1.7v1.4c0,0.8,0,1.4,0,1.6c0,0.2,0.1,0.4,0.3,0.5c0.2,0.1,0.4,0.2,0.8,0.2h0.3v0.4h-4
	v-0.4h0.2c0.4,0,0.6-0.1,0.8-0.2c0.2-0.1,0.3-0.3,0.3-0.4c0-0.2,0-0.7,0-1.7v-2.2c0-0.9,0-1.4,0-1.6c0-0.2-0.1-0.4-0.3-0.5
	c-0.2-0.1-0.4-0.2-0.8-0.2h-0.2v-0.4c0.6-0.1,1.3-0.3,2.3-0.6C30.7,50.6,30.8,51.3,30.8,52.1L30.8,52.1z"/>
<path class="st0" d="M39.8,50.8h-2.3v4.8c0,0.7,0,1.2,0.1,1.5c0.1,0.3,0.2,0.5,0.4,0.6c0.2,0.2,0.4,0.2,0.6,0.2
	c0.4,0,0.8-0.3,1.2-0.8l0.3,0.2c-0.2,0.4-0.5,0.7-0.8,1c-0.4,0.2-0.8,0.3-1.1,0.3c-0.4,0-0.8-0.1-1.2-0.4c-0.3-0.3-0.5-0.6-0.6-1
	c-0.1-0.4-0.1-1-0.1-1.9v-4.5h-1.1v-0.4c0.5,0,1-0.2,1.4-0.7c0.4-0.4,0.7-1,0.8-1.8h0.3v2.5h2.3V50.8L39.8,50.8z"/>
<path class="st0" d="M48.4,56c-0.2,0.6-0.6,1.1-1.1,1.7c-0.5,0.6-1.2,0.9-1.9,0.9c-0.5,0-0.9-0.1-1.2-0.4c-0.3-0.3-0.4-0.6-0.4-1
	c0-0.4,0.1-0.9,0.3-1.6l1.2-3.4c0.1-0.3,0.2-0.5,0.2-0.6c0-0.1,0-0.1-0.1-0.2c-0.1-0.1-0.1-0.1-0.2-0.1c-0.2,0-0.4,0.2-0.7,0.5
	c-0.2,0.3-0.4,0.6-0.6,0.9h-0.8c0.4-0.9,0.8-1.5,1.4-2c0.6-0.5,1.2-0.7,1.7-0.7c0.4,0,0.7,0.1,1,0.3c0.3,0.2,0.4,0.5,0.4,0.8
	c0,0.4-0.1,0.7-0.2,1.1l-1.4,4.1C46,56.7,46,56.9,46,57.1c0,0.1,0,0.2,0.1,0.2c0.1,0.1,0.1,0.1,0.2,0.1c0.2,0,0.4-0.1,0.6-0.3
	c0.2-0.2,0.4-0.6,0.7-1.1H48.4L48.4,56z M49.1,46.2c0,0.3-0.1,0.6-0.4,0.9c-0.2,0.2-0.5,0.4-0.8,0.4c-0.3,0-0.6-0.1-0.9-0.4
	c-0.2-0.2-0.3-0.5-0.3-0.9c0-0.3,0.1-0.6,0.3-0.9c0.2-0.2,0.5-0.4,0.9-0.4c0.2,0,0.4,0.1,0.6,0.2c0.2,0.1,0.3,0.3,0.4,0.4
	C49.1,45.8,49.1,46,49.1,46.2L49.1,46.2z"/>
<path class="st0" d="M59.7,55.8c-0.2,0.3-0.4,0.7-0.7,1.1c-0.3,0.4-0.7,0.8-1.1,1.1c-0.5,0.3-0.9,0.5-1.5,0.5
	c-0.5,0-0.8-0.1-1.1-0.3c-0.3-0.2-0.4-0.5-0.4-0.9c0-0.3,0.1-0.7,0.2-1.2l0.7-2.3c0.2-0.6,0.3-1.1,0.3-1.3c0-0.1,0-0.3-0.1-0.4
	c-0.1-0.1-0.2-0.2-0.3-0.2c-0.3,0-0.7,0.3-1.2,0.9c-0.5,0.6-1,1.4-1.5,2.4c-0.5,1-0.9,2.1-1.3,3.3h-2.2l1.7-5.7
	c0.1-0.6,0.2-0.9,0.2-1c0-0.1,0-0.2-0.1-0.2c0-0.1-0.1-0.1-0.2-0.1c-0.2,0-0.5,0.2-0.7,0.5c-0.2,0.3-0.4,0.7-0.6,1H49
	c0.2-0.7,0.6-1.3,1.1-1.9c0.5-0.6,1.1-0.8,1.9-0.8c0.5,0,0.8,0.1,1.1,0.4c0.2,0.3,0.4,0.6,0.4,0.9c0,0.2,0,0.4-0.1,0.8
	c-0.1,0.3-0.1,0.7-0.2,1l-0.3,1c0.8-1.2,1.5-2.2,2.2-2.9c0.7-0.7,1.4-1.1,2.2-1.1c0.5,0,0.8,0.1,1,0.4c0.2,0.3,0.3,0.6,0.3,0.9
	c0,0.2-0.1,0.6-0.2,1.2l-1,3.4c-0.1,0.4-0.2,0.7-0.2,0.9c0,0.1,0,0.1,0.1,0.2c0,0.1,0.1,0.1,0.2,0.1c0.2,0,0.4-0.1,0.7-0.4
	c0.3-0.3,0.5-0.6,0.7-1H59.7L59.7,55.8z"/>
<path class="st0" d="M69.9,51.2v-3.1c0-0.8,0-1.4,0-1.6c0-0.2-0.1-0.4-0.3-0.5c-0.2-0.1-0.4-0.2-0.8-0.2h-0.2v-0.4
	c0.7,0,1.6-0.2,2.4-0.4h0.2v10.7c0,0.9,0,1.5,0,1.7c0,0.2,0.1,0.3,0.3,0.4c0.2,0.1,0.5,0.1,0.9,0.1v0.4c-0.9,0-1.7,0.1-2.4,0.3
	C70,58.3,70,57.9,70,57.2c-0.5,0.5-0.9,0.8-1.4,1.1c-0.5,0.2-1,0.4-1.5,0.4c-1,0-1.8-0.4-2.5-1.2c-0.7-0.8-1.1-1.8-1.1-3
	c0-1.3,0.4-2.3,1.1-3.1c0.7-0.8,1.6-1.2,2.6-1.2c0.5,0,1,0.1,1.5,0.3C69.1,50.5,69.5,50.8,69.9,51.2L69.9,51.2z M69.9,51.8
	c-0.4-0.4-0.8-0.6-1.2-0.8c-0.4-0.2-0.8-0.3-1.2-0.3c-0.7,0-1.3,0.3-1.7,0.8C65.2,52.1,65,53,65,54.3c0,1.3,0.2,2.2,0.7,2.9
	c0.5,0.6,1.1,0.9,1.8,0.9c0.5,0,0.9-0.1,1.3-0.3c0.4-0.2,0.8-0.6,1.1-1V51.8L69.9,51.8z"/>
<path class="st0" d="M75.7,50.1v5.5c0,0.8,0,1.4,0,1.6c0,0.2,0.1,0.4,0.3,0.5c0.2,0.1,0.4,0.2,0.8,0.2H77v0.4H73v-0.4h0.3
	c0.4,0,0.7-0.1,0.9-0.2c0.1-0.1,0.2-0.3,0.2-0.5c0-0.2,0-0.7,0-1.6v-2.4c0-0.9,0-1.5-0.1-1.7c-0.1-0.2-0.2-0.3-0.3-0.4
	c-0.1-0.1-0.4-0.1-0.7-0.1H73v-0.4c1.1-0.1,1.9-0.3,2.6-0.5H75.7L75.7,50.1z M73.9,46c0-0.3,0.1-0.5,0.3-0.7
	c0.2-0.2,0.4-0.3,0.7-0.3c0.3,0,0.5,0.1,0.7,0.3c0.2,0.2,0.3,0.4,0.3,0.7c0,0.3-0.1,0.5-0.3,0.7c-0.2,0.2-0.4,0.3-0.7,0.3
	c-0.3,0-0.5-0.1-0.7-0.3C74,46.5,73.9,46.3,73.9,46L73.9,46z"/>
<path class="st0" d="M85.8,56.9h0.3c-0.1,1.1-0.6,1.7-1.5,1.7c-0.4,0-0.7-0.1-1-0.3c-0.2-0.2-0.4-0.6-0.5-1c-0.6,0.5-1.2,0.8-1.7,1
	c-0.5,0.2-1,0.3-1.4,0.3c-0.5,0-1-0.2-1.3-0.5c-0.4-0.3-0.6-0.7-0.6-1.2c0-0.7,0.3-1.2,0.9-1.7c0.6-0.5,1.5-1,2.6-1.5l1.4-0.6v-0.4
	c0-0.5,0-0.9-0.1-1.2c-0.1-0.2-0.2-0.5-0.5-0.7c-0.3-0.2-0.7-0.3-1.1-0.3c-0.9,0-1.4,0.3-1.5,1c-0.1,0.7-0.4,1-0.8,1
	c-0.4,0-0.6-0.2-0.6-0.6c0-0.4,0.2-0.8,0.7-1.2c0.5-0.4,1.3-0.6,2.3-0.6c0.8,0,1.4,0.1,1.8,0.4c0.4,0.3,0.7,0.6,0.9,0.9
	c0.1,0.3,0.2,0.8,0.2,1.5V56c0,0.7,0,1.2,0.1,1.4c0.1,0.2,0.2,0.3,0.5,0.3C85.4,57.8,85.7,57.5,85.8,56.9L85.8,56.9z M83.1,53.5
	l-1,0.4c-1.6,0.7-2.4,1.5-2.4,2.6c0,0.4,0.1,0.7,0.3,1c0.2,0.2,0.5,0.4,0.8,0.4c0.3,0,0.6-0.1,1-0.3c0.4-0.2,0.8-0.5,1.3-0.9V53.5
	L83.1,53.5z"/>
<path class="st0" d="M88.9,50.1L88.9,50.1c0.3,0.4,0.4,1,0.4,1.7c0.4-0.6,0.9-1,1.3-1.2c0.5-0.3,1-0.4,1.5-0.4
	c0.6,0,1.1,0.1,1.5,0.4c0.4,0.3,0.7,0.7,0.8,1.3c0.5-0.6,0.9-1,1.4-1.3c0.5-0.3,1-0.4,1.5-0.4c0.6,0,1.1,0.1,1.5,0.4
	c0.4,0.3,0.7,0.6,0.7,1c0.1,0.4,0.1,0.9,0.1,1.8v2.4c0,0.9,0,1.5,0.1,1.7c0,0.2,0.1,0.3,0.3,0.4c0.2,0.1,0.5,0.1,0.9,0.1v0.4h-3.8
	v-0.4c0.4,0,0.7,0,0.8-0.1c0.2-0.1,0.3-0.2,0.3-0.4c0-0.2,0.1-0.8,0.1-1.7v-2.6c0-0.5,0-0.9-0.1-1.2c-0.1-0.3-0.2-0.5-0.5-0.7
	c-0.2-0.2-0.6-0.3-1-0.3c-0.4,0-0.8,0.1-1.2,0.4c-0.4,0.3-0.8,0.7-1.2,1.3v3.1c0,0.8,0,1.4,0,1.6c0,0.2,0.1,0.4,0.3,0.5
	c0.2,0.1,0.4,0.2,0.8,0.2v0.4H92v-0.4c0.4,0,0.7,0,0.9-0.1c0.2-0.1,0.3-0.2,0.3-0.4c0-0.2,0.1-0.8,0.1-1.7v-2.2c0-0.7,0-1.2-0.1-1.5
	c-0.1-0.3-0.2-0.6-0.5-0.8c-0.3-0.2-0.6-0.3-1-0.3c-0.4,0-0.8,0.1-1.2,0.4c-0.4,0.3-0.8,0.6-1.2,1.2v3.3c0,0.9,0,1.4,0,1.6
	c0,0.2,0.1,0.4,0.3,0.5c0.2,0.1,0.4,0.2,0.9,0.2v0.4h-3.7v-0.4c0.4,0,0.7,0,0.8-0.1c0.2-0.1,0.3-0.2,0.3-0.4c0-0.2,0.1-0.8,0.1-1.7
	v-2.4c0-0.9,0-1.5,0-1.7c0-0.2-0.1-0.4-0.3-0.5c-0.2-0.1-0.5-0.2-0.9-0.2v-0.4C87.6,50.4,88.4,50.3,88.9,50.1L88.9,50.1z"/>
<path class="st0" d="M102.2,54.3c0-1.2,0.4-2.2,1.2-3c0.8-0.8,1.7-1.2,2.9-1.2c1.1,0,2.1,0.4,2.9,1.2c0.8,0.8,1.2,1.8,1.2,3
	c0,1.3-0.4,2.4-1.2,3.2c-0.8,0.8-1.7,1.1-2.9,1.1c-1.1,0-2.1-0.4-2.9-1.2C102.6,56.7,102.2,55.6,102.2,54.3L102.2,54.3z M103.7,54.4
	c0,1.4,0.2,2.4,0.7,3c0.4,0.6,1.1,0.8,1.8,0.8c0.8,0,1.4-0.3,1.9-0.8c0.4-0.6,0.6-1.6,0.6-3c0-1.4-0.2-2.4-0.6-3
	c-0.4-0.6-1-0.9-1.9-0.9c-0.8,0-1.4,0.3-1.9,0.9C103.9,52,103.7,53,103.7,54.4L103.7,54.4z"/>
<path class="st0" d="M113.6,50.1h0.2c0.1,0.4,0.2,0.9,0.2,1.6c0.4-0.5,0.9-1,1.4-1.2c0.5-0.3,1-0.4,1.5-0.4c0.6,0,1.1,0.1,1.5,0.4
	c0.4,0.3,0.6,0.6,0.7,1c0.1,0.4,0.2,0.9,0.2,1.7v2.5c0,0.9,0,1.5,0,1.7c0,0.2,0.1,0.3,0.3,0.5c0.2,0.1,0.5,0.1,0.9,0.1v0.4h-3.9
	v-0.4h0.2c0.4,0,0.7-0.1,0.9-0.2c0.1-0.1,0.2-0.3,0.2-0.5c0-0.2,0-0.7,0-1.6V53c0-0.6,0-1.1-0.1-1.3c-0.1-0.3-0.2-0.5-0.5-0.7
	c-0.3-0.2-0.6-0.3-1-0.3c-0.5,0-0.9,0.1-1.3,0.4c-0.4,0.3-0.8,0.7-1.2,1.3v3.2c0,0.9,0,1.5,0.1,1.7c0,0.2,0.1,0.3,0.3,0.5
	c0.2,0.1,0.5,0.1,0.9,0.1v0.4h-3.8v-0.4c0.4,0,0.7,0,0.9-0.1c0.2-0.1,0.3-0.2,0.3-0.4c0-0.2,0.1-0.8,0.1-1.7v-2.4
	c0-0.9,0-1.5-0.1-1.7c0-0.2-0.1-0.3-0.3-0.4c-0.2-0.1-0.5-0.2-0.9-0.2v-0.4C112.2,50.4,112.9,50.3,113.6,50.1L113.6,50.1z"/>
<path class="st0" d="M128.2,51.2v-3.1c0-0.8,0-1.4,0-1.6c0-0.2-0.1-0.4-0.3-0.5c-0.2-0.1-0.4-0.2-0.8-0.2h-0.2v-0.4
	c0.7,0,1.6-0.2,2.4-0.4h0.2v10.7c0,0.9,0,1.5,0,1.7c0,0.2,0.1,0.3,0.3,0.4c0.2,0.1,0.5,0.1,0.9,0.1v0.4c-0.9,0-1.7,0.1-2.4,0.3
	c-0.1-0.3-0.1-0.8-0.1-1.4c-0.5,0.5-0.9,0.8-1.4,1.1c-0.5,0.2-1,0.4-1.5,0.4c-1,0-1.8-0.4-2.5-1.2c-0.7-0.8-1.1-1.8-1.1-3
	c0-1.3,0.4-2.3,1.1-3.1c0.7-0.8,1.6-1.2,2.6-1.2c0.5,0,1,0.1,1.5,0.3C127.3,50.5,127.7,50.8,128.2,51.2L128.2,51.2z M128.2,51.8
	c-0.4-0.4-0.8-0.6-1.2-0.8c-0.4-0.2-0.8-0.3-1.2-0.3c-0.7,0-1.3,0.3-1.7,0.8c-0.5,0.6-0.7,1.5-0.7,2.7c0,1.3,0.2,2.2,0.7,2.9
	c0.5,0.6,1.1,0.9,1.8,0.9c0.5,0,0.9-0.1,1.3-0.3c0.4-0.2,0.8-0.6,1.1-1V51.8L128.2,51.8z"/>
<polygon class="st1" points="27.9,72.1 25.6,68.6 26.4,68.6 28.2,71.5 30.1,68.6 30.8,68.6 28.5,72.1 28.5,74.4 27.9,74.4 
	27.9,72.1 "/>
<path class="st1" d="M31.1,71.5L31.1,71.5c0-1.6,1.1-3,2.8-3c1.7,0,2.8,1.4,2.8,3c0,0,0,0,0,0c0,1.6-1.1,3-2.8,3
	C32.2,74.5,31.1,73.1,31.1,71.5L31.1,71.5z M36.1,71.5L36.1,71.5c0-1.3-0.9-2.4-2.2-2.4c-1.3,0-2.2,1.1-2.2,2.4v0
	c0,1.3,0.9,2.4,2.2,2.4C35.2,73.9,36.1,72.8,36.1,71.5L36.1,71.5z"/>
<path class="st1" d="M37.9,71.9v-3.3h0.6v3.3c0,1.2,0.6,1.9,1.7,1.9c1,0,1.7-0.6,1.7-1.9v-3.3h0.6v3.3c0,1.7-0.9,2.5-2.3,2.5
	C38.9,74.5,37.9,73.6,37.9,71.9L37.9,71.9z"/>
<path class="st1" d="M44,68.6h2.4c0.7,0,1.2,0.2,1.6,0.6c0.3,0.3,0.4,0.7,0.4,1.1v0c0,1-0.6,1.5-1.5,1.7l1.7,2.4h-0.8l-1.6-2.2h0
	h-1.6v2.2H44V68.6L44,68.6z M46.3,71.5c0.8,0,1.4-0.4,1.4-1.2v0c0-0.7-0.5-1.1-1.4-1.1h-1.7v2.3H46.3L46.3,71.5z"/>
<polygon class="st1" points="52,68.6 52.7,68.6 52.7,73.8 55.8,73.8 55.8,74.4 52,74.4 52,68.6 "/>
<polygon class="st1" points="57,68.6 57.6,68.6 57.6,74.4 57,74.4 57,68.6 "/>
<polygon class="st1" points="58.7,68.6 59.4,68.6 61.4,73.6 63.3,68.6 64,68.6 61.6,74.4 61.1,74.4 58.7,68.6 "/>
<polygon class="st1" points="65.1,68.6 65.8,68.6 65.8,74.4 65.1,74.4 65.1,68.6 "/>
<polygon class="st1" points="67.4,68.6 68,68.6 71.4,73.2 71.4,68.6 72,68.6 72,74.4 71.5,74.4 68,69.6 68,74.4 67.4,74.4 
	67.4,68.6 "/>
<path class="st1" d="M73.3,71.5L73.3,71.5c0-1.6,1.1-3,2.8-3c0.9,0,1.5,0.3,2.1,0.8l-0.4,0.5c-0.4-0.4-0.9-0.7-1.7-0.7
	c-1.2,0-2.1,1.1-2.1,2.4v0c0,1.4,0.8,2.4,2.2,2.4c0.6,0,1.2-0.3,1.6-0.6v-1.4h-1.7v-0.6h2.3v2.3c-0.5,0.5-1.3,0.9-2.2,0.9
	C74.4,74.5,73.3,73.1,73.3,71.5L73.3,71.5z"/>
<path class="st1" d="M82.1,68.6h2.3c0.6,0,1.1,0.2,1.4,0.5c0.2,0.2,0.4,0.6,0.4,0.9v0c0,0.7-0.4,1.1-0.9,1.3
	c0.7,0.2,1.2,0.6,1.2,1.4v0c0,1-0.8,1.6-2,1.6h-2.4V68.6L82.1,68.6z M84.4,71.2c0.7,0,1.3-0.4,1.3-1v0c0-0.6-0.4-0.9-1.2-0.9h-1.7v2
	H84.4L84.4,71.2z M84.6,73.8c0.8,0,1.4-0.4,1.4-1v0c0-0.6-0.5-1-1.5-1h-1.7v2H84.6L84.6,73.8z"/>
<path class="st1" d="M87.6,71.5L87.6,71.5c0-1.6,1.1-3,2.8-3c1.7,0,2.8,1.4,2.8,3c0,0,0,0,0,0c0,1.6-1.1,3-2.8,3
	C88.7,74.5,87.6,73.1,87.6,71.5L87.6,71.5z M92.5,71.5L92.5,71.5c0-1.3-0.9-2.4-2.2-2.4c-1.3,0-2.2,1.1-2.2,2.4v0
	c0,1.3,0.9,2.4,2.2,2.4C91.6,73.9,92.5,72.8,92.5,71.5L92.5,71.5z"/>
<polygon class="st1" points="94.5,68.6 95.1,68.6 98.5,73.2 98.5,68.6 99.1,68.6 99.1,74.4 98.6,74.4 95.1,69.6 95.1,74.4 
	94.5,74.4 94.5,68.6 "/>
<path class="st1" d="M100.7,68.6h1.9c1.7,0,2.9,1.2,2.9,2.9v0c0,1.6-1.2,2.9-2.9,2.9h-1.9V68.6L100.7,68.6z M102.6,73.8
	c1.4,0,2.3-1,2.3-2.3v0c0-1.3-0.9-2.3-2.3-2.3h-1.3v4.6H102.6L102.6,73.8z"/>
<path class="st1" d="M70.1,37.6c0,0,24.6-22.1,35.3-5.9C105.4,31.8,89.3,24.8,70.1,37.6L70.1,37.6z"/>
<path class="st1" d="M60.5,37.6c0,0-24.6-22.1-35.3-5.9C25.2,31.8,41.2,24.8,60.5,37.6L60.5,37.6z"/>
<path class="st1" d="M65.3,37.3c0,0-31.3-33.5-23.3-36.1c8-2.5,16.6,5,16.6,5S38.8-1.8,65.3,37.3L65.3,37.3z"/>
<path class="st1" d="M65.6,37.3c0,0,31.3-33.5,23.3-36.1c-8-2.5-16.6,5-16.6,5S92-1.8,65.6,37.3L65.6,37.3z"/>
</svg>
